<mxfile host="app.diagrams.net" modified="2023-11-23T10:55:09.522Z" agent="Mozilla/5.0 (Windows NT 10.0; Win64; x64) AppleWebKit/537.36 (KHTML, like Gecko) Chrome/119.0.0.0 Safari/537.36 Edg/119.0.0.0" version="22.1.3" etag="nSMIZ2N_MiNdLNxGZ-Bq" type="github">
  <diagram name="Page-1" id="GZ8kMMtbOE4-mY29XoIa">
    <mxGraphModel>
      <root>
        <mxCell id="0" />
        <mxCell id="1" parent="0" />
      </root>
    </mxGraphModel>
  </diagram>
</mxfile>
